<svg width="24" height="24" viewBox="0 0 24 24" fill="none" xmlns="http://www.w3.org/2000/svg">
<path d="M21.5442 6.86519C21.6816 6.40109 21.5442 6.05951 20.8833 6.05951H18.6965C18.1395 6.05951 17.8834 6.35282 17.746 6.67955C17.746 6.67955 16.6322 9.3936 15.0579 11.1535C14.5493 11.6621 14.3154 11.8255 14.0369 11.8255C13.8995 11.8255 13.6879 11.6621 13.6879 11.198V6.86519C13.6879 6.30827 13.532 6.05951 13.0716 6.05951H9.63352C9.28452 6.05951 9.0766 6.31941 9.0766 6.56074C9.0766 7.08796 9.86371 7.21048 9.9454 8.6956V11.9183C9.9454 12.6237 9.81916 12.7537 9.5407 12.7537C8.79814 12.7537 6.99372 10.0285 5.92443 6.90974C5.70909 6.30455 5.49746 6.05951 4.93683 6.05951H2.74999C2.12624 6.05951 2 6.35282 2 6.67955C2 7.25874 2.74256 10.1362 5.45662 13.9381C7.26475 16.5333 9.81173 17.9405 12.1285 17.9405C13.5208 17.9405 13.6916 17.6286 13.6916 17.0902C13.6916 14.6101 13.5654 14.3762 14.2634 14.3762C14.5864 14.3762 15.1433 14.5395 16.4428 15.7908C17.9279 17.2759 18.173 17.9405 19.0046 17.9405H21.1915C21.8152 17.9405 22.1308 17.6286 21.9489 17.0123C21.5331 15.7165 18.7225 13.0507 18.5962 12.8725C18.2732 12.4567 18.366 12.271 18.5962 11.8997C18.5999 11.896 21.2694 8.13868 21.5442 6.86519V6.86519Z" fill="white"/>
</svg>
