<svg width="16" height="19" viewBox="0 0 16 19" fill="none" xmlns="http://www.w3.org/2000/svg">
<g clip-path="url(#clip0_15_28)">
<path d="M8.00356 5.0357C5.73213 5.0357 3.89999 6.86784 3.89999 9.13927C3.89999 11.4107 5.73213 13.2428 8.00356 13.2428C10.275 13.2428 12.1071 11.4107 12.1071 9.13927C12.1071 6.86784 10.275 5.0357 8.00356 5.0357ZM8.00356 11.8071C6.5357 11.8071 5.3357 10.6107 5.3357 9.13927C5.3357 7.66784 6.53213 6.47142 8.00356 6.47142C9.47498 6.47142 10.6714 7.66784 10.6714 9.13927C10.6714 10.6107 9.47141 11.8071 8.00356 11.8071ZM13.2321 4.86784C13.2321 5.39999 12.8035 5.82499 12.275 5.82499C11.7428 5.82499 11.3178 5.39642 11.3178 4.86784C11.3178 4.33927 11.7464 3.9107 12.275 3.9107C12.8035 3.9107 13.2321 4.33927 13.2321 4.86784ZM15.95 5.83927C15.8893 4.55713 15.5964 3.42142 14.6571 2.4857C13.7214 1.54999 12.5857 1.25713 11.3036 1.19285C9.98212 1.11785 6.02141 1.11785 4.69999 1.19285C3.42142 1.25356 2.2857 1.54642 1.34642 2.48213C0.407135 3.41785 0.11785 4.55356 0.0535644 5.8357C-0.0214355 7.15713 -0.0214355 11.1178 0.0535644 12.4393C0.114279 13.7214 0.407135 14.8571 1.34642 15.7928C2.2857 16.7286 3.41785 17.0214 4.69999 17.0857C6.02141 17.1607 9.98212 17.1607 11.3036 17.0857C12.5857 17.025 13.7214 16.7321 14.6571 15.7928C15.5928 14.8571 15.8857 13.7214 15.95 12.4393C16.025 11.1178 16.025 7.1607 15.95 5.83927ZM14.2428 13.8571C13.9643 14.5571 13.425 15.0964 12.7214 15.3786C11.6678 15.7964 9.16784 15.7 8.00356 15.7C6.83927 15.7 4.3357 15.7928 3.2857 15.3786C2.5857 15.1 2.04642 14.5607 1.76428 13.8571C1.34642 12.8036 1.44285 10.3036 1.44285 9.13927C1.44285 7.97499 1.34999 5.47142 1.76428 4.42142C2.04285 3.72142 2.58213 3.18213 3.2857 2.89999C4.33927 2.48213 6.83927 2.57856 8.00356 2.57856C9.16784 2.57856 11.6714 2.4857 12.7214 2.89999C13.4214 3.17856 13.9607 3.71785 14.2428 4.42142C14.6607 5.47499 14.5643 7.97499 14.5643 9.13927C14.5643 10.3036 14.6607 12.8071 14.2428 13.8571Z" fill="white"/>
</g>
<defs>
<clipPath id="clip0_15_28">
<rect width="16" height="18.2857" fill="white"/>
</clipPath>
</defs>
</svg>
