<svg width="24" height="12" viewBox="0 0 24 24" fill="#fff" xmlns="http://www.w3.org/2000/svg">
<path d="M21.0342 17.2991L9.65825 11.9945L21.0368 6.6883C21.8712 6.29924 22.2321 5.30759 21.843 4.47322L21.1389 2.96282C20.7498 2.12845 19.7582 1.76752 18.9238 2.15658L2.96249 9.59973C2.67499 9.73384 2.43172 9.94719 2.26123 10.2147C2.09075 10.4823 2.00012 10.7929 2 11.1101L2 12.8934C2 13.5414 2.37552 14.1304 2.96249 14.4038L18.916 21.8428C19.7524 22.2329 20.7467 21.871 21.1368 21.0345L21.843 19.5199C22.2331 18.6835 21.8711 17.6892 21.0342 17.2991Z" fill="#F15B5B"/>
</svg>
